<svg xmlns="http://www.w3.org/2000/svg" viewBox="0 0 182.48 179.75"><defs><style>.cls-1{fill:#fff4e1;}</style></defs><title>资源 6</title><g id="图层_2" data-name="图层 2"><g id="图层_3" data-name="图层 3"><path class="cls-1" d="M182.45,179.75H.11c0-.48-.08-.94-.08-1.41Q0,89.95,0,1.54C0,.25.41,0,1.59,0Q91.2.06,180.8,0c1.41,0,1.68.42,1.68,1.73q0,88.2,0,176.4ZM68.05,65.61l44.51,44.61V65.61Zm-3.29,71.28a10,10,0,0,0-2.53-5c-5.94-6.35-17.77-4.09-21.25,4.06a19.22,19.22,0,0,0-1,11c1.31,7.65,6.22,11.75,13.74,11.51,6-.19,10.94-4.37,11.55-9.92l-3.78-.94c-.2.59-.33,1-.45,1.34a8.17,8.17,0,0,1-8,6,8.56,8.56,0,0,1-8.45-6.28,18.49,18.49,0,0,1-.14-10.27,8.4,8.4,0,0,1,7.77-6.59c4-.32,7,1.11,8.51,5.13.12.31.62.72.89.68A31.36,31.36,0,0,0,64.76,136.89ZM87,104.19H85.46c-3.52,0-7,0-10.54,0-1.08,0-1.51-.26-1.46-1.4.07-2,.07-4.09,0-6.13,0-1.07.33-1.35,1.37-1.34,4.27,0,8.53,0,12.8,0,.48,0,1,0,1.53-.07V93.55c0-1.78,0-1.78-1.71-1.78-5.47,0-10.94,0-16.41,0-1.23,0-1.7.26-1.69,1.6.06,8.09,0,16.18,0,24.27,0,3.69,0,3.69,3.66,3.26a3.13,3.13,0,0,0,.44-.21v-1.46c0-3.25,0-6.49,0-9.74,0-1.72,0-1.72,1.77-1.72,3.52,0,7,0,10.54,0,.42,0,1.13-.42,1.2-.75A14.75,14.75,0,0,0,87,104.19ZM65.85,92c-3.49-.76-4.35-.45-6.15,2.29-2.36,3.6-4.7,7.21-7,10.77-2.59-4-5.19-8-7.82-12.06-.3-.45-.74-1.09-1.17-1.14-1.38-.14-2.79,0-4.46,0,.48.75.77,1.23,1.08,1.7,3.13,4.7,6.29,9.38,9.38,14.11a4.48,4.48,0,0,1,.65,2.21c.08,2.8,0,5.6.05,8.4,0,3.11-.58,2.62,2.76,2.73,1.12,0,1.33-.42,1.32-1.41-.05-3.25-.06-6.49,0-9.74a4.18,4.18,0,0,1,.7-2.19c3.29-4.86,6.64-9.68,10-14.51C65.39,92.75,65.6,92.39,65.85,92Zm28.37,56.62c2.23,0,4.27.07,6.3,0,2.42-.1,4.86-.36,6.45-2.54a7.06,7.06,0,0,0,.7-7.45c-1.09-2.43-3.24-3.32-5.74-3.4-3.16-.1-6.31,0-9.47-.16-1.17,0-1.51.34-1.5,1.51.05,6.4,0,12.8,0,19.2,0,2.12,0,2.09,2.16,2,.8,0,1.11-.29,1.09-1.1,0-1.42,0-2.84,0-4.27Zm62,9.14c-.2-.59-.3-1-.44-1.32-2.75-6.74-5.56-13.45-8.23-20.22-.58-1.45-1.59-1.05-2.59-1.16s-1.39.33-1.72,1.21c-2.55,6.72-5.15,13.42-7.72,20.13-.15.39-.24.8-.41,1.37a10.94,10.94,0,0,1,1.64,0c1.32.24,1.9-.4,2.25-1.6.42-1.45,1-2.83,1.5-4.27a1.18,1.18,0,0,1,1.36-.92c2.45,0,4.89,0,7.33,0a1.12,1.12,0,0,1,1.26.87c.58,1.67,1.22,3.33,1.9,5,.14.35.51.84.82.88A27.5,27.5,0,0,0,156.19,157.75Zm-67.44,0c-.12-.5-.15-.76-.24-1Q84.25,146.34,80,135.91c-.54-1.33-1.63-.71-2.51-.83a1.31,1.31,0,0,0-1.61,1c-2.44,6.48-4.94,12.94-7.42,19.41-.26.69-.48,1.39-.79,2.3a10.83,10.83,0,0,1,1.65,0,1.73,1.73,0,0,0,2.2-1.49c.41-1.49,1.07-2.91,1.56-4.39a1.17,1.17,0,0,1,1.35-.92c2.4,0,4.8.05,7.2,0a1.28,1.28,0,0,1,1.44,1c.6,1.67,1.26,3.32,2,4.95a1.43,1.43,0,0,0,.88.78A23.76,23.76,0,0,0,88.75,157.76Zm48.1-22.68c-5.81,0-11.45,0-17.08,0-1.19,0-.7,1-.77,1.63s-.08,1.28.9,1.25c1.69,0,3.38.07,5.06,0,1.15-.06,1.42.37,1.41,1.45-.05,5.29,0,10.58,0,15.86,0,2.67,0,2.67,2.72,2.46.08,0,.15-.08.41-.22V137.92h7.37Zm24.56,19.84V135.07a17.07,17.07,0,0,1-1.9,0c-1-.12-1.3.31-1.29,1.29q0,10.05,0,20.11c0,1.09.42,1.33,1.42,1.32,3.86,0,7.72,0,11.59,0,.37,0,.75-.07,1.18-.11v-2.73Zm-46,2.63V135.17h-3v20.08c0,2.78,0,2.82,2.84,2.43C115.33,157.68,115.36,157.63,115.45,157.55Z"/><path class="cls-1" d="M94.23,138c2.63,0,5-.09,7.4,0a3.4,3.4,0,0,1,3.45,3.5c.1,2.2-.88,3.69-3,3.95a60.94,60.94,0,0,1-7,.22c-.25,0-.73-.42-.73-.66C94.21,142.75,94.23,140.45,94.23,138Z"/><path class="cls-1" d="M149,148.25h-7.21l3.55-9.73C146.59,141.8,147.78,145,149,148.25Z"/><path class="cls-1" d="M78,138.34l3.63,9.87H74.5C75.64,145,76.77,141.73,78,138.34Z"/></g></g></svg>