<svg xmlns="http://www.w3.org/2000/svg" viewBox="0 0 124.55 125"><defs><style>.cls-1{fill:#fff4e1;}</style></defs><title>资源 20</title><g id="图层_2" data-name="图层 2"><g id="图层_2-2" data-name="图层 2"><path class="cls-1" d="M64.24,0c1.29.11,2.57.24,3.85.34a54.31,54.31,0,0,1,19.9,5c17.89,8.68,29.77,22.46,34.81,41.85a62.63,62.63,0,0,1,1.71,17.59,57.82,57.82,0,0,1-8.36,29.4c-8.5,13.76-20.22,23.55-35.88,28.26a57.53,57.53,0,0,1-13.92,2.35,5,5,0,0,0-.84.17H59a6.43,6.43,0,0,0-.76-.17c-1.73-.17-3.47-.28-5.2-.51A54.14,54.14,0,0,1,37,119.78,64,64,0,0,1,6,89.59,56.67,56.67,0,0,1,.34,68.49C.24,67.18.11,65.87,0,64.56v-3.8c.06-.5.16-1,.18-1.48a56.45,56.45,0,0,1,2-13.5C7.58,27.05,19.33,13.71,36.77,5.32a54.06,54.06,0,0,1,19.66-5C57.71.24,59,.11,60.28,0ZM3,62.76c0,.84.1,1.69.12,2.53A59.14,59.14,0,0,0,5.11,79c4.85,18.52,20,33.56,35.46,39.5a61.56,61.56,0,0,0,28,3.69,58.17,58.17,0,0,0,15.3-3.46,59.42,59.42,0,0,0,24.06-17.18A56.81,56.81,0,0,0,122,67a65.77,65.77,0,0,0-.25-11.31,58.54,58.54,0,0,0-3-13.4,59.47,59.47,0,0,0-18.07-25.68A56.29,56.29,0,0,0,67.46,3.15,66.1,66.1,0,0,0,55,3.42,56.87,56.87,0,0,0,42.65,6.19C31.5,10.1,22.53,17,15.28,26.24,6.87,36.94,3.06,49.23,3,62.76Z"/><path class="cls-1" d="M62.44,21.81c22.8-.28,41.1,19,40.69,41.57s-19.47,40-40.84,40a41,41,0,0,1-40.83-41C21.52,41.31,38.82,21.52,62.44,21.81ZM23.64,62.59a43.81,43.81,0,0,0,1.16,9.88C27.14,82,32.62,89.4,40.54,95a35.87,35.87,0,0,0,18.21,6.42,41.73,41.73,0,0,0,15-1.41c12.52-3.62,25.28-16,27-32a41.67,41.67,0,0,0-.76-15C97,41.2,89.84,32.66,79,27.21a36.73,36.73,0,0,0-19.39-3.49,39.74,39.74,0,0,0-10.36,2A38.89,38.89,0,0,0,23.64,62.59Z"/><path class="cls-1" d="M25.28,39.27c.11-1.43,0-1.54-1.4-1.76-2.24-.36-2.24-.36-3.3,1.58a2.77,2.77,0,0,1-.31.56c-1.33,1.51-1,2.84.35,4.18.78.76,1.1.86,1.84,0l.19-.24.17.1L21,47h-.21c.51-1.22-.19-2-.82-2.87l-6.41-8.37c-.19-.24-.36-.49-.7-1l2.67.22c3.18.29,6.36.56,9.54.9a3.37,3.37,0,0,0,2.82-1.28A1,1,0,0,0,28,33.2c-.32-.42-.66-.83-1-1.22L22.3,26.85a2.25,2.25,0,0,0-3.13-.47.76.76,0,0,1-.5.15A13.36,13.36,0,0,1,21,24.46c.52-.3,1.37,0,2.07.05,3.17.39,6.33.81,9.49,1.21a1.31,1.31,0,0,0,.81-.19c-1.89-2-3.75-4-5.69-5.88-.64-.63-1.25,0-1.91.3l3.09-2.88c0,.13.06.19,0,.21C28,18.5,28,18.71,29,19.84c2.16,2.35,4.34,4.69,6.51,7,.2.21.39.42.58.64l-.06.22-13.3-1.59c.24.34.36.54.52.72,1.54,1.67,3.07,3.35,4.62,5,1.15,1.24,1.32,1.26,2.79.48A16.76,16.76,0,0,0,25.28,39.27ZM21,37.18l-5.6-.49-.08.2,3.34,4.41Z"/><path class="cls-1" d="M67.45,111.3a7.77,7.77,0,0,1,1.13-4,4.28,4.28,0,0,1,5.31-1.78A6.38,6.38,0,0,1,78,110a9,9,0,0,1,0,6.2,4.75,4.75,0,0,1-7.25,2C68.41,116.51,67.58,114.06,67.45,111.3Zm9.23,3.81a19.83,19.83,0,0,0-1.49-6.34,10.41,10.41,0,0,0-1.48-2.21,2.09,2.09,0,0,0-1.07-.63,2.48,2.48,0,0,0-3,2.46,15.92,15.92,0,0,0,1.32,7.4A8.05,8.05,0,0,0,72.5,118a2,2,0,0,0,2.47.4C76.47,117.78,76.54,116.45,76.68,115.11Z"/><path class="cls-1" d="M18.7,58c-.05-1.54-.24-1.87-1.65-2.22-2.76-.67-5.53-1.32-8.3-1.93-1.28-.29-1.49-.14-2,1.07,0,.09-.07.17-.26.2.46-1.85.87-3.71,1.38-5.55A15,15,0,0,1,9,46.73c1.22-2.4,3.73-3.36,6.72-2.69a5.91,5.91,0,0,1,4.6,5.2c.17,2.29-.57,4.42-1.05,6.6C19.08,56.58,18.88,57.31,18.7,58ZM13.53,45.8c-3.2,0-5.27,2.4-5.31,5.74a.78.78,0,0,0,.49.53q4.75,1.18,9.52,2.29a.77.77,0,0,0,.66-.3,6.55,6.55,0,0,0,.58-3.85C19,47.73,17.27,46,13.53,45.8Z"/><path class="cls-1" d="M103.73,23.69c1.32,1.84,2.7,3.64,3.93,5.54a3.76,3.76,0,0,1,.55,2.24,2.85,2.85,0,0,1-4.52,2.16c-.34-.2-.65-.42-1.11-.72C102,35,101.45,37,101.05,39a7.55,7.55,0,0,0,.39,2.42c-.71-1-1.34-1.78-1.9-2.64-.11-.17,0-.51.07-.76.51-1.8,1-3.62,1.56-5.39a1.66,1.66,0,0,0-.74-2.15c-1.17.9-2.37,1.8-3.54,2.73a1,1,0,0,0-.22,1.42,1.12,1.12,0,0,1,.21.74c-1.06-1.4-2.13-2.8-3.19-4.21,1.61,1.08,1.61,1.09,3.2-.11l6-4.54C104.29,25.47,104.33,25.35,103.73,23.69Zm1.37,3.24L101,30.13c.76,1.45,2.36,2.52,3.52,2.41a2.86,2.86,0,0,0,2.4-2C107.21,29.37,106.54,28,105.1,26.93Z"/><path class="cls-1" d="M52.84,113.75a24.84,24.84,0,0,1-2.74-.29c-2.75-.6-4.2-2.69-3.6-5.09A4.53,4.53,0,0,1,52.33,105a5.45,5.45,0,0,1,3.58,8.14c-1.54,2.83-4.12,4.05-7.19,4.39a9.67,9.67,0,0,1-4.51-.61,1.85,1.85,0,0,1-.61-.36C47.27,117.68,50.19,116.48,52.84,113.75Zm-.66-.46c.43-.14,1-.15,1.25-.44a6.61,6.61,0,0,0,1.32-4.53,3.07,3.07,0,0,0-2.33-2.78,2.67,2.67,0,0,0-2.87,1.19,7.4,7.4,0,0,0-.8,1.62C47.84,111.07,49.28,113.1,52.18,113.29Z"/><path class="cls-1" d="M53.15,6.83c1,0,2.08,0,3.11,0,.24,0,.48.29.67.5,2.39,2.58,4.76,5.17,7.14,7.76.21.23.41.47.73.85a4.58,4.58,0,0,0,.11-.71c-.1-2.32-.19-4.65-.33-7C64.5,7,64.29,6.84,62.82,6.54c.41,0,.82-.1,1.23-.12s1,0,1.42,0a12.3,12.3,0,0,1,1.44.06c-1.78.09-1.64,1.32-1.6,2.47l.36,9.27a1.61,1.61,0,0,1-.17.85l-9-9.77c0,1.16,0,2.08,0,3,0,1.51.09,3,.17,4.52s.25,1.82,1.88,2.38l-4.13.19,0-.14a.93.93,0,0,1,.29-.13c1.19-.18,1.43-.49,1.38-1.67-.11-2.35-.21-4.7-.28-7C55.64,7.85,55.54,7.68,53.15,6.83Z"/><path class="cls-1" d="M87.41,105.4a28.9,28.9,0,0,0-.46-3.79c-.45-1.74.2-2.8,1.65-3.68a26.51,26.51,0,0,0,2.71-2.06c.55,1.42.51,1.56-.64,2.45-.79.61-1.55,1.28-2.38,1.84a1.25,1.25,0,0,0-.59,1.47c.08.38.15.76.24,1.26l1-.47a8.51,8.51,0,0,1,5.33-1,3.81,3.81,0,0,1,3.25,4,7.44,7.44,0,0,1-4.13,6.24,2.1,2.1,0,0,1-1,.29c-.29,0-.75-.19-.82-.4a1,1,0,0,1,.31-.87,2.93,2.93,0,0,1,1.28-.51,4.17,4.17,0,0,0,3.55-3.45,3.14,3.14,0,0,0-3.07-3.48,8.17,8.17,0,0,0-5.26,1.61Z"/><path class="cls-1" d="M92.22,14.43l7.84,5.91-1.44,2.08-.11,0a3.25,3.25,0,0,1,.08-.45c.45-1.27.38-1.62-.67-2.47s-2.11-1.65-3.26-2.53L91.53,21c1.11.79,2.13,1.56,3.21,2.26.74.48,1.32-.08,2-.4l-2.38,3.17c-.07-.1-.13-.15-.12-.17.5-1.67.46-1.81-1-2.91l-2-1.57c-1,1.36-2.06,2.66-3,4a1.11,1.11,0,0,0,.23,1,18.42,18.42,0,0,0,3.19,2.32,4.39,4.39,0,0,0,2.2,0A5.2,5.2,0,0,0,95,28.46l.09.17c-.8.53-1.59,1.07-2.41,1.56-.12.07-.42,0-.56-.14-2.47-1.86-4.92-3.73-7.38-5.61-.05,0-.06-.12-.11-.2,1.83.62,1.92.6,3.12-1l4.51-6C93.31,15.84,93.29,15.68,92.22,14.43Z"/><path class="cls-1" d="M116.27,45.47l-3.78,1.3-.09-.15c.32-.24.64-.46.95-.7a3.4,3.4,0,0,0,1.08-4.37,2.24,2.24,0,0,0-2.06-1.35,1.88,1.88,0,0,0-1.68,1.57c-.37,1.59-.64,3.2-1,4.79a3.31,3.31,0,0,1-3.42,2.89,3.71,3.71,0,0,1-3.11-2.36,24.54,24.54,0,0,1-.51-3.33c-.07-.6-.09-1.18-1.1-1.37l3.84-1.29.1.16c-.21.14-.41.3-.63.42-1.94,1.14-2,3.91-1,5.48a2,2,0,0,0,2.13.93,2.09,2.09,0,0,0,1.66-1.63c.32-1.17.54-2.36.81-3.55.11-.46.21-.92.33-1.38A3.1,3.1,0,0,1,111.7,39,3.62,3.62,0,0,1,115,41.22a9.45,9.45,0,0,1,.41,2.7c0,.72,0,1.28,1,1.36Z"/><path class="cls-1" d="M46.25,8.8l3.84-1.47.07.11a1.45,1.45,0,0,1-.19.17c-1,.65-1.13,1-.74,2.11.56,1.6,1.17,3.17,1.72,4.76.29.82.51,1.66.75,2.5a3,3,0,0,1-.81,3,6.62,6.62,0,0,1-5.64,2.14,3.43,3.43,0,0,1-2.87-2.33c-.8-1.95-1.57-3.92-2.34-5.88,0-.1-.08-.2-.11-.3-.64-1.63-.79-1.71-2.48-1.49l2.38-.94,2.52-.94c0,.09,0,.15,0,.16-1.33.82-1.41,1-.85,2.49.82,2.14,1.61,4.3,2.53,6.4.71,1.6,1.75,2.16,3.07,2,2.06-.31,3.77-1.59,4-3.14a5.43,5.43,0,0,0-.35-2.24c-.62-1.85-1.32-3.67-2-5.49C48.11,8.83,47.89,8.71,46.25,8.8Z"/><path class="cls-1" d="M6.3,61.06V57.28c.22.35.39.94.78,1.18a3.42,3.42,0,0,0,1.61.27c2.21,0,4.43-.07,6.65,0a3.64,3.64,0,0,1,3.53,2.88,7.6,7.6,0,0,1,0,4.07,3.56,3.56,0,0,1-3.42,2.8c-1.23.09-2.47.12-3.71.17-1,0-2,.07-3,.13-1.72.08-1.78.14-2.24,1.78V65.34c0,.24.09.46.14.66a1.09,1.09,0,0,0,1.06,1c.84,0,1.69,0,2.53,0,1.61-.05,3.22-.1,4.83-.18,3-.15,3.79-2.18,3.24-4.66a3.29,3.29,0,0,0-3.57-2.83c-2.27-.06-4.55,0-6.82.13C6.86,59.52,6.68,59.78,6.3,61.06Z"/><path class="cls-1" d="M114.76,81.78a4.74,4.74,0,0,0-1.56-3c-1.22-1.28-2.4-2.61-3.61-3.9a1.85,1.85,0,0,0-.76-.52c-1-.28-2-.52-3-.73-1.23-.25-1.39-.13-2.19,1.25l1.26-5c0,1.58.15,1.65,1.63,2.17a6.62,6.62,0,0,0,5.54-.23,27.53,27.53,0,0,1,3.25-1.23c1-.36,2-.65,2.48-1.81l.17.13-1.24,4.92c-.08,0-.15-.07-.15-.09,0-1.4-.32-1.69-1.62-1.24l-5.09,1.81c1.41,1.47,2.67,2.85,4,4.13.63.61,1.13.37,1.87-.6Z"/><path class="cls-1" d="M77.79,8.14l4.76,2c-2,.15-2,.17-2,2.08v8.09a4.68,4.68,0,0,0,.63-.33c1.91-1.83,3.83-3.64,5.71-5.49,1-1,1-1.37,0-2.43l3.3,1.37,0,.23c-1.61-.24-2.43.86-3.37,1.76-2.3,2.21-4.59,4.44-6.9,6.66-.21.21-.46.39-.85.73,0-.44-.07-.69-.07-.93-.06-3.69-.13-7.39-.18-11.09a2.41,2.41,0,0,0-1.23-2.48Z"/><path class="cls-1" d="M11.33,72.93l3.94-1.08c-1.51,1-1.59,1.23-1.15,2.85.17.61.35,1.21.55,1.92l2.68-.76.83-.25c1.84-.55,1.84-.55,2-2.35l1.43,4.92-.14,0-.3-.62A1,1,0,0,0,19.86,77q-4.68,1.29-9.36,2.63c-1,.29-.91,1.13-.91,2L7,72.59l2.4-.84.08.13c-.19.17-.38.32-.55.49a2.11,2.11,0,0,0-.73,2.2c.27,1,.56,2,.82,3.06.11.45.34.51.75.39,1.24-.37,2.48-.72,3.72-1.07.43-.11.64-.3.44-.78a6.5,6.5,0,0,1-.29-1.07C13.34,73.88,12.89,72.86,11.33,72.93Z"/><path class="cls-1" d="M105.55,59.35a2.19,2.19,0,0,0,.22.81,2,2,0,0,0,.94.77,8.51,8.51,0,0,0,1.89,0l8.52-.28c.61-2.2,0-3.53-2-4.46.78,0,1.56,0,2.35,0,.11,0,.28.35.28.55.13,3.11.22,6.22.35,9.33,0,.61-.21.79-.77.78s-1.26.08-2,.06c2.63-.65,2-2.65,2-4.46-1.33,0-2.61,0-3.89,0-1.9.06-3.8.17-5.69.25-1.73.08-1.79.13-2.27,1.77Z"/><path class="cls-1" d="M32.73,111.48l-4.92-3.57c.13,0,.18-.08.21-.06,1.72.93,1.77.93,2.93-.66,1.54-2.14,3.09-4.29,4.59-6.46,1.16-1.69,1.06-2-.72-2.91l4.38,1.09c-.23.34-.37.58-.53.8q-3,4.16-6,8.29c-.11.15-.22.3-.32.46-1,1.46-.95,1.5.29,2.7a1.73,1.73,0,0,1,.17.21Z"/><path class="cls-1" d="M72.92,20.14l-5.08-1.05c.12-.08.17-.15.22-.15,1.46-.08,1.65-.18,2-1.62.6-2.81,1.14-5.63,1.67-8.45.21-1.08,0-1.36-1.37-2l5,1c-.06.08-.08.15-.1.15-1.52.1-1.65.2-2,1.75-.53,2.61-1,5.22-1.57,7.82C71.37,19.19,71.44,19.34,72.92,20.14Z"/><path class="cls-1" d="M105.44,56l-.6-5,.13,0a4.34,4.34,0,0,1,.16.47,1.17,1.17,0,0,0,1.44,1c3.09-.35,6.17-.72,9.26-1.11,1-.13,1.23-.51,1.38-1.84l.63,5.09-.15,0c0-.14-.08-.27-.11-.4-.25-1-.63-1.28-1.64-1.16q-4.56.52-9.1,1.1C105.88,54.35,105.67,54.68,105.44,56Z"/><path class="cls-1" d="M62.44,34.85c2.08,0,4,.16,6,0a125.68,125.68,0,0,1,18.91-.33,5.49,5.49,0,0,1,1.9.52,1.18,1.18,0,0,1,.56,1.88,2.35,2.35,0,0,1-2.11,1.31c-4.25.09-8.5.23-12.76.29A60.73,60.73,0,0,0,64,39.59c-.57.12-.67.33-.64.91a27.2,27.2,0,0,0,1.31,7.21,8.17,8.17,0,0,1,0,4.08c-1,5.78-2.1,11.56-3.06,17.36A64.57,64.57,0,0,0,60.74,83a59.85,59.85,0,0,0,1.63,10.54,18.06,18.06,0,0,1,.4,3.21,1.65,1.65,0,0,1-2.36,1.74,3.67,3.67,0,0,1-1.6-1.19A11,11,0,0,1,56.66,92c-.58-3.73-1.18-7.45-1.89-11.15-.34-1.83-.62-2-2.48-1.83-3.12.27-6.24.61-9.36,1a67.75,67.75,0,0,1-12.24.71,7.81,7.81,0,0,1-1.86-.33,1.46,1.46,0,0,1-.6-2.67A7,7,0,0,1,32,75.91c3.27-.45,6.54-.92,9.82-1.12,3.58-.22,7.18-.15,10.78-.2,2.15,0,2.17,0,2.63-2.13q2.16-10,4.29-20c0-.22,0-.45.06-.83-.25.2-.4.3-.52.42-2.26,2.19-4.51,4.39-6.78,6.56A1.9,1.9,0,0,0,51.66,60c-.12,1.95-.24,3.9-.48,5.83a4.89,4.89,0,0,1-2.79,3.81,17.6,17.6,0,0,1-6.24,1.65,26.76,26.76,0,0,1-7.89-.14c-3-.55-4.76-2.58-6.13-5.06a13.83,13.83,0,0,1-1.43-5.47,50.44,50.44,0,0,1,.15-10.13,7.5,7.5,0,0,1,5-6.76,24.47,24.47,0,0,1,9.47-2A11.47,11.47,0,0,1,47.81,44a3,3,0,0,1,1,1.39c.64,1.78,1.2,3.59,1.79,5.4.27.83.38.93,1.15.48A14.51,14.51,0,0,0,54,49.64c1.55-1.43,3.06-2.92,4.54-4.42A1.75,1.75,0,0,0,59,44.11c0-1.3-.09-2.6-.15-3.91l-.27-.08-1.35.9c-1.17.73-2.3,1.53-3.52,2.13a2.36,2.36,0,0,1-1.79,0c-1.16-.54-1.6-1.26-.46-2.35a35.21,35.21,0,0,0,6.75-9.52c.83-1.62,1.77-3.19,2.63-4.79A2.75,2.75,0,0,1,63,25.12a1.35,1.35,0,0,1,1.48.68,3.06,3.06,0,0,1,.27,2.8c-.67,1.81-1.35,3.61-2,5.41C62.61,34.28,62.54,34.55,62.44,34.85ZM33,55.09c2.38-.17,4.86-.31,7.32-.53a34,34,0,0,0,3.9-.6,1.73,1.73,0,0,0,1.48-2,13.08,13.08,0,0,0-.45-2.39,3,3,0,0,0-2.56-2.31A16.38,16.38,0,0,0,33,48.72a2.84,2.84,0,0,0-1.68,2,19.86,19.86,0,0,0-.2,3.45c0,.6.44.93,1.07.92Zm5.24,11c1.08-.07,2.13-.1,3.18-.23,1.52-.19,3-.6,3.76-2.11a8,8,0,0,0,1-4c0-.92-.3-1.24-1.2-1.33a5,5,0,0,0-.95,0c-1.63.13-3.26.22-4.88.4-1.94.22-3.87.47-5.79.79a2,2,0,0,0-1.73,2.19c0,1.62,2.08,3.89,3.78,4.07C36.38,66,37.33,66,38.26,66.08Z"/><path class="cls-1" d="M92.06,69.77c-.19,2.31-.29,4.64-.59,6.93a5.24,5.24,0,0,1-3.59,4.45c-1.31.48-2.69.76-4,1.15-.43.12-.85.28-1.27.44a.71.71,0,0,0-.46,1.06c.55,1.23,1.12,2.44,1.64,3.69a31.14,31.14,0,0,1,1.12,3.11c.28.94-.17,1.45-1.15,1.34a5.5,5.5,0,0,1-5-3.45c-.49-1.22-1-2.44-1.46-3.68a1.24,1.24,0,0,0-1.52-.93,20.47,20.47,0,0,0-2.65.75c-2,.75-4.06,1.64-6.15,2.27a4.94,4.94,0,0,1-2.53-.24.88.88,0,0,1-.35-1.57,7.2,7.2,0,0,1,2-1.48c2.17-1,4.39-1.78,6.59-2.66.88-.36,1.77-.69,2.64-1.06a1.33,1.33,0,0,0,.78-1.64c-.11-.6-.45-1-1.09-.88-1.75.27-3.48.55-5.22.86s-3.26.63-4.89.93a2.76,2.76,0,0,1-.86,0,.7.7,0,0,1-.66-1A3.8,3.8,0,0,1,66,75.48c1.46-.5,3-.82,4.5-1.19s2.94-.61,4.39-1a2.17,2.17,0,0,0,1.16-.91,1.25,1.25,0,0,0,0-1.16A1.55,1.55,0,0,0,74.9,71c-1.21.09-2.41.31-3.62.36a4.14,4.14,0,0,1-1.75-.4c-.88-.39-1-1.13-.24-1.73a4.35,4.35,0,0,1,1.65-.89,47.2,47.2,0,0,1,5.49-1.1c1.75-.21,3.53-.13,5.3-.21.65,0,.94.21.88.87s-.11,1.26-.14,1.89c-.08,1.47.46,1.9,1.9,1.65C86.43,71,87.77,70,88.1,67.8a1.84,1.84,0,0,1,2.09-1.62A1.7,1.7,0,0,1,92,67.86c0,.63,0,1.27,0,1.9Zm-8.91,8.68,2.37-.8a2,2,0,0,0,1.39-2.48c-.15-.63-.53-1-1.19-.84a23.81,23.81,0,0,0-3.08,1.17,2.13,2.13,0,0,0-.89,1.06C81.33,77.5,81.89,78.44,83.15,78.45Z"/><path class="cls-1" d="M79.71,51.7c-2.95-.22-5.91-.29-8.82-.72a5.16,5.16,0,0,1-4.36-3.69,4.92,4.92,0,0,1,4.16-6.14,31.25,31.25,0,0,1,4.08-.46A71.86,71.86,0,0,1,87,41.13c2.57.37,4.12,1.76,4.37,4,.31,2.72-.8,4.92-3,5.64a14.8,14.8,0,0,1-3.57.59c-1.66.09-3.33,0-5,0Zm-1.36-7.47v.3c-2,0-4.06-.06-6.09,0a1.43,1.43,0,0,0-1.14,2.38,2.26,2.26,0,0,0,1.51.82c3.37.16,6.74.27,10.11.29a15.34,15.34,0,0,0,3.36-.45,1.36,1.36,0,0,0,.71-2.4,1.8,1.8,0,0,0-1-.49C83.29,44.51,80.82,44.38,78.35,44.23Z"/><path class="cls-1" d="M78.24,65.2c-2.32-.12-4.64-.22-7-.37A5.64,5.64,0,0,1,66.36,60a4.83,4.83,0,0,1,4.31-5.35c3.3-.35,6.64-.45,10-.48a56,56,0,0,1,6.71.45,4.65,4.65,0,0,1,4.12,4.17,8.6,8.6,0,0,1,0,2.21,3.84,3.84,0,0,1-3.2,3.31A23.89,23.89,0,0,1,84,65c-1.9.1-3.81,0-5.71,0Zm.28-8c-2.24.18-4.24.29-6.22.51-1.17.13-1.55.61-1.59,1.61a1.66,1.66,0,0,0,1.46,2,6.44,6.44,0,0,0,1.56.26c3.24,0,6.48,0,9.73,0a15.09,15.09,0,0,0,2.8-.44,1.33,1.33,0,0,0,1-1.34c.09-1.1-.37-1.7-1.76-1.88C83.13,57.58,80.71,57.42,78.52,57.21Z"/></g></g></svg>